<?xml version="1.0" encoding="UTF-8"?>
<svg width="128pt" height="128pt" version="1.1" viewBox="0 0 128 128" xmlns="http://www.w3.org/2000/svg">
 <defs>
  <clipPath id="ab">
   <path d="m92 55h7v6h-7z"/>
  </clipPath>
  <clipPath id="q">
   <path d="m78.754 8.9414 40.305 69.809-69.809 40.305-40.305-69.809z"/>
  </clipPath>
  <clipPath id="g">
   <path d="m88 63h7v5h-7z"/>
  </clipPath>
  <clipPath id="f">
   <path d="m78.754 8.9414 40.305 69.809-69.809 40.305-40.305-69.809z"/>
  </clipPath>
  <clipPath id="e">
   <path d="m80 67h8v5h-8z"/>
  </clipPath>
  <clipPath id="d">
   <path d="m78.754 8.9414 40.305 69.809-69.809 40.305-40.305-69.809z"/>
  </clipPath>
  <clipPath id="c">
   <path d="m71 67h7v5h-7z"/>
  </clipPath>
  <clipPath id="b">
   <path d="m78.754 8.9414 40.305 69.809-69.809 40.305-40.305-69.809z"/>
  </clipPath>
  <clipPath id="a">
   <path d="m62 64h7v6h-7z"/>
  </clipPath>
  <clipPath id="aa">
   <path d="m78.754 8.9414 40.305 69.809-69.809 40.305-40.305-69.809z"/>
  </clipPath>
  <clipPath id="z">
   <path d="m54 63h7v6h-7z"/>
  </clipPath>
  <clipPath id="y">
   <path d="m78.754 8.9414 40.305 69.809-69.809 40.305-40.305-69.809z"/>
  </clipPath>
  <clipPath id="x">
   <path d="m46 62h7v6h-7z"/>
  </clipPath>
  <clipPath id="w">
   <path d="m78.754 8.9414 40.305 69.809-69.809 40.305-40.305-69.809z"/>
  </clipPath>
  <clipPath id="v">
   <path d="m83 55h4v8h-4z"/>
  </clipPath>
  <clipPath id="u">
   <path d="m78.754 8.9414 40.305 69.809-69.809 40.305-40.305-69.809z"/>
  </clipPath>
  <clipPath id="t">
   <path d="m73 57h6v7h-6z"/>
  </clipPath>
  <clipPath id="s">
   <path d="m78.754 8.9414 40.305 69.809-69.809 40.305-40.305-69.809z"/>
  </clipPath>
  <clipPath id="r">
   <path d="m65 57h7v5h-7z"/>
  </clipPath>
  <clipPath id="p">
   <path d="m78.754 8.9414 40.305 69.809-69.809 40.305-40.305-69.809z"/>
  </clipPath>
  <clipPath id="o">
   <path d="m55 53h7v5h-7z"/>
  </clipPath>
  <clipPath id="n">
   <path d="m78.754 8.9414 40.305 69.809-69.809 40.305-40.305-69.809z"/>
  </clipPath>
  <clipPath id="m">
   <path d="m45 51h6v7h-6z"/>
  </clipPath>
  <clipPath id="l">
   <path d="m78.754 8.9414 40.305 69.809-69.809 40.305-40.305-69.809z"/>
  </clipPath>
  <clipPath id="k">
   <path d="m90 47h6v8h-6z"/>
  </clipPath>
  <clipPath id="j">
   <path d="m78.754 8.9414 40.305 69.809-69.809 40.305-40.305-69.809z"/>
  </clipPath>
  <clipPath id="i">
   <path d="m31 55h61v23h-61z"/>
  </clipPath>
  <clipPath id="h">
   <path d="m78.754 8.9414 40.305 69.809-69.809 40.305-40.305-69.809z"/>
  </clipPath>
 </defs>
 <g>
  <g clip-path="url(#ab)">
   <g clip-path="url(#q)">
    <path d="m98.734 56.102c0.003906-0.19531-0.24219-0.25-0.36328-0.13281-1.2812 1.2266-5.4492 1.3438-5.6367 3.5273-0.082031 0.074218-0.11328 0.20703-0.011719 0.30469 0.015625 0.019531 0.035156 0.03125 0.050782 0.046875 0.011718 0.015625 0.027343 0.03125 0.046874 0.042969 2.7344 2.5391 5.8359-0.82031 5.9141-3.7891z"/>
   </g>
  </g>
  <g clip-path="url(#g)">
   <g clip-path="url(#f)">
    <path d="m94.898 63.703c0.054687-0.1875-0.17188-0.30078-0.32031-0.21875-1.5469 0.87109-5.6094-0.050781-6.3359 2.0195-0.097657 0.054688-0.16016 0.17188-0.085938 0.29297 0.011719 0.019531 0.027344 0.039063 0.039062 0.058594 0.007813 0.019531 0.019532 0.039062 0.035157 0.054687 2.0156 3.1289 5.8516 0.64844 6.668-2.207z"/>
   </g>
  </g>
  <g clip-path="url(#e)">
   <g clip-path="url(#d)">
    <path d="m87.727 69.605c0.13672-0.14062-0.015624-0.34766-0.18359-0.33984-1.7734 0.0625-4.9609-2.6211-6.5586-1.1133-0.10938 0.003906-0.22266 0.078125-0.21094 0.22266 0 0.023438 0.007812 0.046875 0.007812 0.070312-0.003906 0.019532 0 0.042969 0.007812 0.0625 0.35547 3.7109 4.9023 3.2617 6.9375 1.0977z"/>
   </g>
  </g>
  <g clip-path="url(#c)">
   <g clip-path="url(#b)">
    <path d="m77.805 70.633c0.16797-0.097656 0.078124-0.33594-0.082032-0.37891-1.7227-0.42188-4.0625-3.875-6.0039-2.8594-0.10547-0.027343-0.23438 0.015625-0.26562 0.15625-0.003906 0.023438-0.003906 0.046875-0.011719 0.066407-0.007812 0.019531-0.007812 0.042968-0.011718 0.0625-0.66797 3.6758 3.8281 4.4805 6.375 2.9531z"/>
   </g>
  </g>
  <g clip-path="url(#a)">
   <g clip-path="url(#aa)">
    <path d="m68.863 69.219c0.18359-0.070312 0.13672-0.32031-0.019531-0.38672-1.6289-0.70703-3.3555-4.5-5.4414-3.8242-0.10156-0.046874-0.23438-0.023437-0.28516 0.10938-0.007813 0.019531-0.011719 0.042968-0.023438 0.0625-0.007812 0.019531-0.015625 0.039062-0.023438 0.0625-1.2695 3.5039 3.0273 5.0547 5.793 3.9766z"/>
   </g>
  </g>
  <g clip-path="url(#z)">
   <g clip-path="url(#y)">
    <path d="m60.719 68.074c0.18359-0.070313 0.13672-0.32031-0.019531-0.38672-1.6289-0.70312-3.3555-4.5-5.4414-3.8242-0.10156-0.046875-0.23437-0.023437-0.28516 0.10938-0.007812 0.019532-0.011718 0.042969-0.023437 0.0625-0.007813 0.019532-0.015625 0.039063-0.023438 0.0625-1.2695 3.5039 3.0273 5.0508 5.793 3.9766z"/>
   </g>
  </g>
  <g clip-path="url(#x)">
   <g clip-path="url(#w)">
    <path d="m52.152 66.898c0.18359-0.070313 0.13672-0.32031-0.019532-0.38672-1.6289-0.70312-3.3555-4.5-5.4414-3.8242-0.10156-0.046875-0.23438-0.023438-0.28516 0.10938-0.007812 0.019531-0.011719 0.042969-0.023438 0.0625-0.007812 0.019531-0.015624 0.039063-0.023437 0.0625-1.2734 3.5078 3.0273 5.0547 5.793 3.9766z"/>
   </g>
  </g>
  <g clip-path="url(#v)">
   <g clip-path="url(#u)">
    <path d="m84.984 55.293c-0.14453-0.13672-0.34766 0.015625-0.33984 0.18359 0.070313 1.7734-2.6016 4.9727-1.0859 6.5625 0.003906 0.10938 0.082031 0.22266 0.22266 0.21094 0.027344 0 0.042969-0.003906 0.070312-0.007812 0.019532 0 0.042969 0 0.0625-0.007813 3.7109-0.37109 3.2422-4.9141 1.0703-6.9414z"/>
   </g>
  </g>
  <g clip-path="url(#t)">
   <g clip-path="url(#s)">
    <path d="m78.348 58.102c-0.039062-0.19141-0.29297-0.19141-0.38281-0.046874-0.97656 1.4805-5.0117 2.5234-4.7109 4.6914-0.0625 0.09375-0.066406 0.22656 0.054688 0.30078 0.019531 0.011719 0.039062 0.023437 0.058594 0.035156 0.015624 0.011719 0.035156 0.023438 0.054687 0.03125 3.2344 1.8594 5.5078-2.1016 4.9258-5.0117z"/>
   </g>
  </g>
  <g clip-path="url(#r)">
   <g clip-path="url(#p)">
    <path d="m71.574 57.492c0.019531-0.19531-0.22266-0.26563-0.35156-0.15625-1.3672 1.1328-5.5312 0.95312-5.875 3.1172-0.085937 0.070313-0.12891 0.19922-0.03125 0.30469 0.015625 0.019532 0.03125 0.03125 0.046875 0.050782 0.011719 0.015625 0.027344 0.03125 0.042969 0.046875 2.5508 2.7227 5.8789-0.40625 6.168-3.3633z"/>
   </g>
  </g>
  <g clip-path="url(#o)">
   <g clip-path="url(#n)">
    <path d="m61.68 53.777c0.035156-0.19141-0.20313-0.28516-0.33984-0.18359-1.4492 1.0195-5.5859 0.51562-6.1016 2.6484-0.089843 0.0625-0.14062 0.1875-0.054687 0.30078 0.015625 0.019531 0.03125 0.035156 0.042968 0.050781 0.011719 0.019531 0.023438 0.035156 0.042969 0.050781 2.3242 2.9141 5.8867 0.054688 6.4102-2.8672z"/>
   </g>
  </g>
  <g clip-path="url(#m)">
   <g clip-path="url(#l)">
    <path d="m50.531 51.844c-0.023438-0.19531-0.27344-0.21094-0.37891-0.078125-1.0938 1.3984-5.1992 2.1094-5.0742 4.3008-0.070313 0.085938-0.082031 0.22266 0.035156 0.30469 0.019531 0.011718 0.039063 0.023437 0.054688 0.039062 0.015625 0.011719 0.035156 0.023438 0.054687 0.035156 3.0703 2.1172 5.6523-1.6523 5.3086-4.6016z"/>
   </g>
  </g>
  <g clip-path="url(#k)">
   <g clip-path="url(#j)">
    <path d="m94.652 48.082c-0.082032-0.17578-0.32812-0.11328-0.38281 0.042969-0.60156 1.6719-4.2773 3.6328-3.4727 5.6719-0.039063 0.10156-0.007813 0.23828 0.125 0.28125 0.023437 0.007813 0.042969 0.011719 0.066406 0.019531 0.019531 0.007813 0.039063 0.015625 0.0625 0.019532 3.5781 1.0469 4.8555-3.3398 3.6016-6.0352z"/>
   </g>
  </g>
  <g clip-path="url(#i)">
   <g clip-path="url(#h)">
    <path d="m91.93 56.344c0.19531-1.0508-1.4297-1.4023-1.625-0.34766-2.8359 15.359-21.285 6.9883-31.18 4.7031-5.6719-1.3125-12.012-2.3125-17.551 0.019531-6.3164 2.6602-8.7812 9.5898-9.8555 15.84-0.17969 1.0547 1.4414 1.4023 1.6211 0.34766 1.2734-7.4102 4.5117-14.434 12.621-15.711 6.5312-1.0273 13.441 1.2109 19.684 2.8633 10.133 2.6836 23.727 6.1484 26.285-7.7148z"/>
   </g>
  </g>
 </g>
</svg>
