<?xml version="1.0" encoding="UTF-8"?>
<svg width="128pt" height="128pt" version="1.1" viewBox="0 0 128 128" xmlns="http://www.w3.org/2000/svg">
 <path d="m22.762 20.441c-1 0.09375-1.8477 0.76562-2.1719 1.7109-0.32812 0.94531-0.074219 1.9961 0.64844 2.6875l39.16 39.16-39.16 39.16c-0.5625 0.45703-0.91016 1.1289-0.94922 1.8555-0.039062 0.72656 0.23438 1.4336 0.74609 1.9492 0.51562 0.51172 1.2227 0.78516 1.9492 0.74609 0.72656-0.039063 1.3984-0.38672 1.8555-0.94922l39.16-39.16 39.16 39.16c0.45703 0.5625 1.1289 0.91016 1.8555 0.94922 0.72656 0.039062 1.4336-0.23438 1.9492-0.74609 0.51172-0.51562 0.78516-1.2227 0.74609-1.9492-0.039063-0.72656-0.38672-1.3984-0.94922-1.8555l-39.16-39.16 39.16-39.16c0.75781-0.73438 0.98828-1.8555 0.58203-2.8281-0.41016-0.97266-1.3711-1.5977-2.4219-1.5703-0.67188 0.023438-1.3008 0.3125-1.7617 0.79688l-39.16 39.16-39.16-39.16c-0.48047-0.50391-1.1445-0.79297-1.8398-0.79688-0.078125-0.003906-0.16016-0.003906-0.23828 0z"/>
</svg>
