<?xml version="1.0" encoding="UTF-8"?>
<svg width="512pt" height="512pt" version="1.1" viewBox="0 0 512 512" xmlns="http://www.w3.org/2000/svg">
 <g fill="#fff">
  <path d="m439.63 281.95c-1.2461-0.96875-2.9062-1.0391-4.2188-0.20703-1.2461 0.89844-1.8008 2.5586-1.2461 4.0117 2.2148 6.4336 1.7305 13.562-1.2461 19.926-3.1133 6.6406-8.5117 11.625-15.359 14.113-6.5742 2.3516-13.699 2.1445-19.996-0.62109l-2.2852-13.699 4.3594-8.5781 17.504-11.277c0.83203-0.48438 1.3828-1.3828 1.5234-2.3516l11.07-68.566c0.27734-1.4531-0.48438-2.9062-1.8008-3.5977s-2.9766-0.41406-4.0117 0.62109l-49.262 48.848c-0.69141 0.69141-1.1055 1.6602-1.0391 2.6289l1.0391 20.824-4.4961 8.7188-11 6.6406c-12.387-7.543-16.676-23.664-9.5469-36.461 3.4609-6.1562 8.9961-10.586 15.566-12.594 1.5234-0.41406 2.4922-1.8008 2.4922-3.3203 0-1.5898-1.0391-2.9062-2.5586-3.3203-17.09-4.5664-35.078 3.1133-43.727 18.613-5.1211 9.1328-6.3672 19.648-3.5273 29.613 2.7656 10.031 9.3398 18.336 18.406 23.457 4.1523 2.3516 8.6484 3.875 13.352 4.4961l1.9375 9.1328-13.977 27.191c-2.9062-1.9375-6.1562-3.5273-9.5469-4.7734-13.078-28.922-19.098-60.609-17.438-91.883 0 0 0.48438-9.1328 0.48438-9.2695 1.3164-24.699 2.4922-50.164-2.4922-75.418-3.3203-18.406-14.047-33.695-28.645-42.898 3.1836-4.5664 4.9805-9.8945 4.9805-15.5 0-14.598-11.625-26.43-26.086-26.984 4.4961-5.8828 7.125-13.215 7.125-20.758 0-18.82-15.289-34.109-34.109-34.109-12.66 0-23.941 6.9883-30.027 18.129-5.8828-5.7422-13.562-9.5469-21.793-10.449-1.4531-0.13672-2.7656 0.62109-3.4609 1.9375-0.62109 1.2461-0.41406 2.8359 0.55469 3.875 3.9453 4.2188 6.0898 9.7539 6.0898 15.637 0 12.938-10.516 23.457-23.457 23.457-5.8125 0-11.348-2.1445-15.566-6.0195-1.1055-0.96875-2.6289-1.1758-3.875-0.55469-1.2461 0.62109-2.0078 1.9375-1.9375 3.3906 1.6602 21.035 16.121 32.863 40.613 33.902 0.27734 5.0508 1.9375 9.8945 4.8438 13.977-14.598 9.2695-25.324 24.562-28.645 42.965 0 0.13672-0.070312 0.20703-0.070312 0.27734-4.8438 24.906-3.8047 50.301-2.4219 74.934 0 0.20703 0.48438 9.4805 0.48438 9.4805 0.96875 17.438-0.62109 35.008-4.4297 52.238-14.805-4.7734-25.117-14.32-30.168-27.605 11.762-9.7539 19.855-27.055 19.855-42.898 0-10.309-3.5273-18.336-10.238-24.078-0.27734-3.3203-1.6602-6.5039-3.9453-8.9961-2.9062-3.1836-7.0586-4.9805-11.348-4.9805h-29.059c-4.3594 0-8.5117 1.8008-11.418 4.9805-2.2852 2.5586-3.5977 5.7422-3.875 9.0625-6.7109 5.6719-10.309 13.906-10.309 24.008 0 19.027 11.625 39.578 26.637 47.531 7.8203 24.633 26.152 47.324 53.551 55.973-0.89844 2.2148-1.8008 4.4297-2.7656 6.6406-18.613 6.8516-30.996 24.215-30.996 44.211v62.477c0 10.656 8.7188 19.305 19.371 19.305l215.67 0.007812c10.656 0 19.305-8.6484 19.305-19.305v-62.477c0-5.2578-0.83203-10.379-2.4922-15.152 0.13672-0.13672 0.34766-0.20703 0.41406-0.41406l19.512-38.055 10.102-3.25c3.3203 3.5273 7.1953 6.3672 11.555 8.3711 9.4805 4.4297 20.066 4.9141 29.82 1.3828 9.7539-3.5273 17.574-10.723 22.004-20.133 7.6094-16.125 3.3203-35.219-10.309-46.43zm-120.32 66.562-34.664-10.516c1.4531-2.1445 2.2148-4.6367 2.2148-7.2656 0-3.5977-1.3828-6.918-3.875-9.4805-2.4922-2.5586-5.8828-3.9453-9.4805-3.9453-2.3516 0-4.4961 0.62109-6.5039 1.8008v-4.6367c12.938-9.5469 21.863-24.078 23.871-40.82 4.8438-0.62109 9.2031-2.6992 12.594-5.8828-0.27734 27.539 5.1875 55.145 15.844 80.746zm-59.02-23.941c-16.535 13.215-40.27 13.215-56.805 0 0.13672-0.34766 0.20703-0.69141 0.20703-1.0391v-4.5664c8.5117 4.6367 18.129 7.125 28.16 7.125 10.238 0 19.855-2.6289 28.23-7.1953v4.6367c0 0.34766 0.070313 0.69141 0.20703 1.0391zm-28.438-5.3984c-10.586 0-20.617-3.1133-29.129-8.8555-0.070312-0.070312-0.13672-0.070312-0.20703-0.13672-2.7656-1.8672-5.3281-4.0117-7.75-6.4336-9.9648-9.8945-15.43-23.109-15.43-37.086v-50.992c0.070312-10.172 11.625-18.473 25.738-18.473 10.449 0 19.789 4.4961 23.801 11.555 0.62109 1.0391 1.7305 1.7305 2.9766 1.7305 1.2461 0 2.4219-0.69141 3.043-1.7305 3.9453-7.0586 13.285-11.555 23.73-11.555 14.113 0 25.668 8.3008 25.738 18.473v50.992c0.003907 28.922-23.52 52.512-52.512 52.512zm37.086 6.9219c1.2461-1.1758 2.8359-1.8672 4.5664-1.8672 1.7305 0 3.3906 0.69141 4.5664 1.9375 1.2461 1.1758 1.8672 2.8359 1.8672 4.5664 0 1.6602-0.62109 3.3203-1.8672 4.4961-12.316 12.316-28.715 19.098-46.148 19.098-17.504 0-33.902-6.8516-46.289-19.164-1.1758-1.1758-1.8672-2.8359-1.8672-4.5664 0-1.7305 0.69141-3.3203 1.8672-4.5664 1.3164-1.2461 2.9062-1.8672 4.5664-1.8672 1.6602 0 3.3203 0.62109 4.5664 1.8672 20.48 20.477 53.691 20.477 74.172 0.066406zm22.348-59.434v-31.965c7.1953 1.5234 12.66 7.8867 12.871 15.5-0.070312 0.62109-0.070312 1.3164-0.13672 1.9375-0.625 7.1914-5.8125 13.004-12.734 14.527zm-13.281-150.21c0 4.4297-1.5234 8.5781-4.082 12.039-8.0938-3.9453-17.02-6.0898-26.43-6.0898h-31.273c-9.3398 0-18.336 2.1445-26.359 6.0898-2.5586-3.4609-4.082-7.6094-4.082-12.039 0-5.3984 2.0742-10.449 5.9492-14.254 3.668-3.7344 8.8555-5.8828 14.184-5.8828h51.961c11.066 0.003906 20.133 9.0664 20.133 20.137zm-71.891-56.457c4.1523-11.211 14.254-18.477 25.738-18.477 15.016 0 27.191 12.176 27.191 27.191 0 8.0273-3.668 15.637-9.7539 20.688h-34.941c-2.9766-2.8359-13.77-14.457-8.2344-29.402zm-26.707 51.059c-17.922-0.69141-28.922-7.3359-32.727-19.926 4.0117 1.9375 8.5117 2.9766 13.078 2.9766 16.742 0 30.375-13.629 30.375-30.375 0-4.3594-0.89844-8.6484-2.6992-12.523 4.4297 1.8008 8.3711 4.7031 11.555 8.4414-3.7344 12.523 1.2461 23.246 6.1562 29.82-6.918 0.20703-13.562 2.9766-18.336 7.8867-3.8047 3.8086-6.3633 8.5117-7.4023 13.699zm-17.504 65.453v-0.20703c0.070312-0.070313 0.070312-0.13672 0.070312-0.20703 4.9141-27.121 27.746-46.773 54.246-46.773h31.273c26.57 0 49.402 19.648 54.246 46.148 0 0.27734 0.070313 0.62109 0.13672 1.0391 2.6289 13.352 3.4609 26.637 3.4609 40.199 0 6.0195-0.20703 12.109-0.41406 18.266-3.5273-3.8047-8.3008-6.4336-13.629-7.2656v-12.039c0-7.125-3.5977-13.492-9.4805-18.059-5.8828-4.5664-14.047-7.3359-23.18-7.3359-10.793 0-20.758 4.1523-26.777 10.863-5.9492-6.7109-15.914-10.863-26.777-10.863-18.195 0-32.52 11.141-32.656 25.391v12.039c-5.3281 0.83203-10.031 3.3906-13.562 7.1953-0.83203-19.852-0.76172-39.086 3.043-58.391zm10.516 58.191v31.965c-6.6406-1.4531-11.762-6.9883-12.66-13.836-0.070312-0.96875-0.13672-1.8672-0.13672-2.7656 0.27344-7.5469 5.6719-13.844 12.797-15.363zm-17.781 82.543c0-0.070313 0.070312-0.070313 0.070312-0.13672 0.070313-0.20703 0.070313-0.34766 0.070313-0.48438 3.8047-16.051 5.6719-32.449 5.5352-48.777 3.3906 3.1133 7.75 5.1875 12.594 5.8125 1.5234 13.215 7.4023 25.461 16.953 35.008 2.1445 2.1445 4.4961 4.082 6.918 5.8828v4.4961c-5.1211-2.9062-11.691-2.2148-15.984 2.1445-2.5586 2.4922-3.9453 5.8828-3.9453 9.4102 0 2.6992 0.76172 5.2578 2.2148 7.4023l-34.664 10.516c4.2188-10.172 7.6797-20.621 10.238-31.273zm-27.676-83.375 0.62109-6.9883c2.5586 3.875 3.9453 8.6484 3.9453 14.391 0 12.66-6.1562 26.844-15.082 35.562-1.5234-6.8516-1.8672-14.461-0.89844-22.762 6.2266-4.7031 10.586-11.832 11.414-20.203zm-61.785 7.4023c0-5.7422 1.3828-10.449 4.0117-14.391l0.62109 6.9883c0.76172 8.2344 5.0508 15.289 11.141 19.996-0.76172 7.957-0.34766 16.328 1.3164 24.699-9.8242-8.5078-17.09-23.523-17.09-37.293zm11.555-8.0938-1.3164-13.77c-0.27734-2.4219 0.55469-4.7734 2.1445-6.5039 1.6602-1.8008 3.875-2.7656 6.2969-2.7656h29.059c2.4219 0 4.6367 0.96875 6.2266 2.7656 1.6602 1.8008 2.4219 4.082 2.2148 6.5039l-1.3164 13.77c-1.0391 11.277-10.379 19.789-21.656 19.789-11.273 0-20.613-8.5117-21.652-19.789zm10.863 24.562c2.2852 0.96875 4.7734 1.5234 7.3359 1.8008v17.988c0 1.9375 1.5234 3.4609 3.4609 3.4609 1.8672 0 3.4609-1.5234 3.4609-3.4609v-17.988c2.2148-0.27734 4.3594-0.69141 6.3672-1.4531-1.7305 29.957 12.523 52.098 39.023 60.473-1.7305 6.6406-3.875 13.285-6.2266 19.789-35.02-10.938-55.082-48.781-53.422-80.609zm63.863 153.81c-1.7305 0.070313-3.4609 1.4531-3.5273 3.3906-0.070313 1.6602 0 3.25 0.13672 4.9141-0.070312 0.27734-0.20703 0.48438-0.20703 0.76172l-0.003906 49.883h-23.801c-6.8516 0-12.453-5.5352-12.453-12.387v-62.477c0-17.922 11.555-33.418 28.645-38.609l44.418-13.422c13.078 11.348 29.684 17.645 47.258 17.645 12.871 0 25.184-3.4609 35.977-9.6875-11.555 29.891-29.199 70.852-59.641 101.71-14.875 2.9062-29.891-0.41406-40.406-9.1328-8.7148-7.2656-13.352-17.504-13.008-28.988 0.070312-1.9375-1.4531-3.5312-3.3867-3.5977zm3.3203 58.949v-30.719c2.3516 3.5273 5.1875 6.8516 8.6484 9.6875 9.2695 7.6797 21.52 11.832 34.316 11.832 0.76172 0 1.5234-0.13672 2.2148-0.13672-3.668 3.25-7.4727 6.4336-11.555 9.3398zm44.973 0c4.2891-3.5273 8.3711-7.2656 12.246-11.141 0.48438-0.34766 0.83203-0.69141 1.1055-1.1055 34.801-35.285 53.207-82.887 64.898-113.61 0.41406-0.34766 0.76172-0.69141 1.1758-1.0391l40.059 12.176c13.078 37.848 8.4414 80.469-12.387 114.71zm152.36-12.387c0 6.8516-5.5352 12.387-12.387 12.387h-24.84c19.234-33.832 23.801-74.723 12.594-111.88 14.875 6.2969 24.633 20.617 24.633 37.016zm91.605-132.64c-3.668 7.75-10.102 13.629-18.129 16.535-8.0273 2.9062-16.742 2.4922-24.492-1.1758-4.2188-1.8672-7.8203-4.7031-10.793-8.2344-0.89844-1.1055-2.3516-1.5234-3.668-1.1055l-13.629 4.3594c-0.89844 0.27734-1.5898 0.89844-2.0078 1.7305l-17.988 35.008c-2.5586-4.5664-5.8828-8.6484-9.8242-12.176l15.082-29.406c0.41406-0.69141 0.48438-1.5234 0.34766-2.2852l-2.7656-12.801c-0.34766-1.4531-1.5898-2.5586-3.1836-2.6992-4.5664-0.27734-8.9961-1.5898-13.008-3.875-7.4727-4.2188-12.871-11.07-15.152-19.305-2.3516-8.2344-1.3164-16.883 2.9062-24.355 5.2578-9.4102 14.598-15.289 24.84-16.258-3.4609 2.6992-6.4336 6.1562-8.6484 10.172-9.1328 16.398-3.25 37.223 13.285 46.426l0.83203 0.48438c1.0391 0.48438 2.2852 0.48438 3.3203-0.13672l13.562-8.2344c0.55469-0.27734 0.96875-0.76172 1.3164-1.3828l5.3281-10.379c0.27734-0.55469 0.41406-1.1055 0.34766-1.7305l-0.96875-20.273 40.613-40.27-9.1328 56.527-16.953 10.934c-0.55469 0.34766-0.96875 0.83203-1.2461 1.3828l-5.3281 10.379c-0.34766 0.62109-0.48438 1.3828-0.34766 2.1445l2.8359 16.605c0.20703 1.1055 0.89844 2.0078 1.8672 2.4922l0.89844 0.48438c8.2344 3.875 17.504 4.3594 26.086 1.2461 8.5781-3.1133 15.43-9.4102 19.234-17.645 2.0078-4.1523 3.043-8.5117 3.25-12.938 5.1875 8.8594 5.8789 19.93 1.3125 29.754z"/>
  <path d="m189.3 440.04c1.0391 0 2.0742-0.48438 2.7656-1.3164 1.1758-1.5234 0.89844-3.668-0.62109-4.8438l-0.34766-0.27734c-1.5234-1.1758-3.4609-0.76172-4.6367 0.76172-1.1758 1.5234-0.69141 3.8047 0.83203 4.9805 0.48828 0.41797 1.2461 0.69531 2.0078 0.69531z"/>
  <path d="m263.61 245c-4.0117 2.9766-10.656 2.9766-14.598 0-1.5234-1.1758-3.7344-0.83203-4.8438 0.69141-1.1758 1.5234-0.83203 3.668 0.69141 4.8438 3.1836 2.4219 7.3359 3.5977 11.418 3.5977 4.082 0 8.2344-1.1758 11.418-3.5977 1.5234-1.1758 1.8672-3.3203 0.69141-4.8438-1.1094-1.5234-3.2539-1.8672-4.7773-0.69141z"/>
  <path d="m244.86 284.51c-7.0586 5.2578-18.957 5.2578-25.875 0-1.5234-1.1758-3.668-0.83203-4.8438 0.69141-1.1758 1.5234-0.83203 3.668 0.69141 4.8438 4.7734 3.5977 10.934 5.3984 17.09 5.3984s12.316-1.8008 17.16-5.3984c1.5234-1.1758 1.8672-3.3203 0.69141-4.8438-1.2461-1.5234-3.3906-1.8008-4.9141-0.69141z"/>
  <path d="m221.68 245.69c-1.1055-1.5234-3.3203-1.8672-4.8438-0.69141-4.0117 2.9766-10.656 2.9766-14.598 0-1.5234-1.1758-3.668-0.83203-4.8438 0.69141-1.1758 1.5234-0.83203 3.668 0.69141 4.8438 3.1836 2.4219 7.3359 3.5977 11.418 3.5977 4.082 0 8.2344-1.1758 11.418-3.5977 1.5859-1.1094 1.8633-3.3203 0.75781-4.8438z"/>
  <path d="m245.28 455.06c-1.5234-1.1758-3.4609-0.76172-4.6367 0.76172-1.1758 1.5234-0.69141 3.8047 0.83203 4.9805 0.62109 0.48438 1.3828 0.69141 2.1445 0.69141 1.0391 0 2.0742-0.48438 2.7656-1.3164 1.1758-1.5234 0.89844-3.668-0.62109-4.8438z"/>
  <path d="m278.76 444.12c-1.5234-1.1758-3.4609-0.76172-4.6367 0.76172-1.1758 1.5234-0.69141 3.8047 0.83203 4.9805 0.62109 0.48437 1.3828 0.69141 2.1445 0.69141 1.0391 0 2.0742-0.48438 2.7656-1.3164 1.1758-1.5234 0.89844-3.668-0.62109-4.8438z"/>
  <path d="m310.87 433.2c-1.5234-1.1758-3.4609-0.76172-4.6367 0.76172-1.1758 1.5234-0.69141 3.8047 0.83203 4.9805 0.62109 0.48438 1.3828 0.69141 2.1445 0.69141 1.0391 0 2.0742-0.48438 2.7656-1.3164 1.1758-1.5234 0.89844-3.668-0.62109-4.8438z"/>
  <path d="m314.81 375.35-0.34766-0.27734c-1.5234-1.1758-3.4609-0.76172-4.6367 0.76172-1.1758 1.5234-0.69141 3.8047 0.83203 4.9805 0.62109 0.48438 1.3828 0.69141 2.1445 0.69141 1.0391 0 2.0742-0.48437 2.7656-1.3164 0.96875-1.4492 0.69531-3.6641-0.75781-4.8398z"/>
  <path d="m299.73 409.53c1.1758-1.5234 0.89844-3.668-0.62109-4.8438l-0.34766-0.27734c-1.5234-1.1758-3.4609-0.76172-4.6367 0.76172-1.1758 1.5234-0.69141 3.8047 0.83203 4.9805 0.62109 0.48438 1.3828 0.69141 2.1445 0.69141 0.89844 0.070312 1.9375-0.41406 2.6289-1.3125z"/>
  <path d="m287.34 369.68c-1.5234-1.1758-3.4609-0.76172-4.6367 0.76172-1.1758 1.5234-0.69141 3.8047 0.83203 4.9805 0.62109 0.48438 1.3828 0.69141 2.1445 0.69141 1.0391 0 2.0742-0.48438 2.7656-1.3164 1.1758-1.5234 0.89844-3.668-0.62109-4.8438z"/>
  <path d="m300.63 455.2c-1.5234-1.1758-3.4609-0.76172-4.6367 0.76172-1.1758 1.5234-0.69141 3.8047 0.83203 4.9805 0.62109 0.48438 1.3828 0.69141 2.1445 0.69141 1.0391 0 2.0742-0.48438 2.7656-1.3164 1.1758-1.5234 0.89844-3.668-0.62109-4.8438z"/>
  <path d="m267.48 418.66c-1.5234-1.1758-3.4609-0.76172-4.6367 0.76172-1.1758 1.5234-0.69141 3.8047 0.83203 4.9805 0.62109 0.48438 1.3828 0.69141 2.1445 0.69141 1.0391 0 2.0742-0.48438 2.7656-1.3164 1.1758-1.5234 0.89844-3.668-0.62109-4.8438z"/>
  <path d="m107.8 235.11c1.0391 0 2.0742-0.48438 2.7656-1.3164 1.1758-1.5234 0.89844-3.668-0.62109-4.8438l-0.34766-0.27734c-1.5234-1.1758-3.5273-0.76172-4.7031 0.76172-1.1758 1.5234-0.76172 3.8047 0.76172 4.9805 0.69141 0.48828 1.4531 0.69531 2.1445 0.69531z"/>
  <path d="m89.324 235.11c1.0391 0 2.0742-0.48438 2.6992-1.3164 1.1758-1.5234 0.89844-3.668-0.55469-4.8438l-0.34766-0.27734c-1.5234-1.1758-3.5273-0.76172-4.7031 0.69141-1.1758 1.5234-0.76172 3.8047 0.76172 4.9805 0.62109 0.48828 1.3828 0.76562 2.1445 0.76562z"/>
 </g>
</svg>
