<?xml version="1.0" encoding="UTF-8"?>
<svg width="512pt" height="512pt" version="1.1" viewBox="0 0 512 512" xmlns="http://www.w3.org/2000/svg">
 <path d="m331.12 256.04c0 4.9453-4.0078 8.9609-8.9609 8.9609h-57.199v57.207c0 4.9492-4.0156 8.9609-8.9609 8.9609s-8.9609-4.0078-8.9609-8.9609v-57.207h-57.211c-4.9453 0-8.9609-4.0156-8.9609-8.9609 0-4.9453 4.0156-8.9609 8.9609-8.9609h57.211v-57.203c0-4.9453 4.0156-8.9609 8.9609-8.9609s8.9609 4.0156 8.9609 8.9609v57.207h57.199c4.9531-0.003906 8.9609 4.0117 8.9609 8.957zm77.199 0c0 40.684-15.848 78.934-44.617 107.7-29.695 29.695-68.699 44.543-107.7 44.543s-78.008-14.848-107.7-44.543c-28.77-28.77-44.617-67.02-44.617-107.7 0-40.688 15.848-78.934 44.617-107.7s67.02-44.617 107.7-44.617 78.934 15.848 107.7 44.617c28.77 28.762 44.617 67.016 44.617 107.7zm-17.922 0c0-35.902-13.977-69.652-39.363-95.039-25.383-25.383-59.133-39.359-95.035-39.359s-69.652 13.977-95.039 39.363c-25.387 25.387-39.363 59.137-39.363 95.039 0 35.902 13.977 69.652 39.363 95.039 52.41 52.398 137.67 52.402 190.07 0 25.391-25.395 39.367-59.141 39.367-95.043z" fill="#fff"/>
</svg>
